<svg xmlns="http://www.w3.org/2000/svg" viewBox="0 0 546.32 489.09"><defs><style>.a26585ce-0bf5-4089-bbe1-74165621ed78{fill:#484443;}.f1d74f00-530e-47ba-a2c9-d9ea7da69e78{fill:#eb6012;}.efb9abca-3e3c-4ba9-ad9a-708a4c95974c{fill:#f28e0c;}.bfcda65d-9ef4-42e1-9782-26edd0b50dc6{fill:#0c81b3;}.bde278ed-8366-4f07-be5c-8ec5fe49cbc0{fill:#c6c6c6;}.a0d20d59-a553-4d85-9834-7087ca97ac8f{fill:#dadada;}.b0645897-5551-4d5e-98d7-ec0cca00e34c{fill:#f7c300;}</style></defs><g id="b86424e2-8055-4e96-a8f0-95523dd6005e" data-name="Layer 2"><path class="a26585ce-0bf5-4089-bbe1-74165621ed78" d="M232.8,58.73a22.66,22.66,0,1,1-40.23,20.81A35.68,35.68,0,1,0,232.8,58.73Zm12.33,40.7A7.87,7.87,0,1,1,253,91.57,7.86,7.86,0,0,1,245.13,99.43Z"/><path class="f1d74f00-530e-47ba-a2c9-d9ea7da69e78" d="M279.74,156.83s-1,.68,1,3.64,29.09,40.33,29.09,40.33L328.27,194l-.34-8-28.49-25.45-15.81-4.06Z"/><path class="efb9abca-3e3c-4ba9-ad9a-708a4c95974c" d="M278,152.45s-3.49,5.39-19.46,6.53a244.77,244.77,0,0,1-36.9-.46,20.25,20.25,0,0,1-5.74-1.26s18.23,30.4,44.89,38.51,32.84,7.2,40.61,6.74S311.78,200,311.78,200Z"/><path class="bfcda65d-9ef4-42e1-9782-26edd0b50dc6" d="M540.72,469.33S506.45,493,469.93,481.5s-58-32.24-117-80.14-65.77-53.86-65.77-53.86-14.46,6.6-19.28,8.37-28.66,10-44.72,11.08-53.51-.2-85.47-22.91c-32.58-23.16-39.74-35.17-51.91-64.2s-12.68-52.13-12.68-52.13,1.6-15.3-11.08-16-11.58,16-11.58,16,2.23,57.14,28.91,92.15c27.85,36.52,67.23,64.3,109.06,70.34,50,7.21,97.9-16.23,97.9-16.23l110.47,91.87s-30.32,24-72,12.51-74.39-44.19-74.39-44.19-51.52,11.31-101.18-5.62l-9.93,18H169.3a15.45,15.45,0,0,1,0,30.89H60.86a15.45,15.45,0,0,1,0-30.89h39l19.27-32.46c-1.14-.73-2.26-1.48-3.38-2.26-56.58-39.45-72.36-64.93-85.67-88.15S2.35,258.54,6,208.49,27.15,110.64,60.75,75,137,21.4,161.88,13.92c24-7.22,67.05-9.46,67.05-9.46s-49.15,9-65.38,48.47-2.61,87.24,39.61,137.63C221,211.89,329.48,291.9,344.58,304.3S540.72,469.33,540.72,469.33Z"/><rect class="bde278ed-8366-4f07-be5c-8ec5fe49cbc0" x="261" y="176.4" width="145.44" height="103.68" rx="12" transform="translate(-70.58 226.05) rotate(-34.06)"/><path class="a0d20d59-a553-4d85-9834-7087ca97ac8f" d="M375,159.74l-32.55,78.82-87.69,3-3.87-5.72a12,12,0,0,1,3.22-16.66l100.61-68a12,12,0,0,1,16.66,3.22Z"/><path class="b0645897-5551-4d5e-98d7-ec0cca00e34c" d="M306.71,66.8c-7.42-38.66-45.32-55.13-45.32-55.13s49.16-2,86.91,44.87c38.1,47.34,22.8,99.52,17.36,113.62-9.92,25.7-27.05,37.43-27.05,37.43s1-3.16.05-5.19-6.63-6.09-9-7.61-2.11-3.13-2.83-3.72c-.27-.22-50.9-37.15-50.9-37.15S317.87,125,306.71,66.8Z"/></g></svg>